<svg width="85" height="76" viewBox="0 0 85 76" fill="none" xmlns="http://www.w3.org/2000/svg">
<path d="M2.65625 47.0254C3.36073 47.0254 4.03636 47.2756 4.5345 47.721C5.03265 48.1664 5.3125 48.7705 5.3125 49.4004V61.2754C5.3125 62.5352 5.87221 63.7434 6.86849 64.6341C7.86478 65.5249 9.21604 66.0254 10.625 66.0254H74.375C75.784 66.0254 77.1352 65.5249 78.1315 64.6341C79.1278 63.7434 79.6875 62.5352 79.6875 61.2754V49.4004C79.6875 48.7705 79.9674 48.1664 80.4655 47.721C80.9636 47.2756 81.6393 47.0254 82.3438 47.0254C83.0482 47.0254 83.7239 47.2756 84.222 47.721C84.7201 48.1664 85 48.7705 85 49.4004V61.2754C85 63.7949 83.8806 66.2113 81.888 67.9929C79.8954 69.7745 77.1929 70.7754 74.375 70.7754H10.625C7.80707 70.7754 5.10456 69.7745 3.11199 67.9929C1.11942 66.2113 0 63.7949 0 61.2754V49.4004C0 48.7705 0.279854 48.1664 0.777998 47.721C1.27614 47.2756 1.95177 47.0254 2.65625 47.0254V47.0254Z" fill="#E1E1E1"/>
<path d="M40.6188 5.44384C40.8656 5.22266 41.1587 5.04719 41.4814 4.92745C41.8041 4.80772 42.1501 4.74609 42.4995 4.74609C42.8488 4.74609 43.1948 4.80772 43.5175 4.92745C43.8402 5.04719 44.1333 5.22266 44.3801 5.44384L60.3176 19.6938C60.8163 20.1398 61.0966 20.7447 61.0966 21.3753C61.0966 22.006 60.8163 22.6109 60.3176 23.0568C59.8188 23.5028 59.1423 23.7533 58.437 23.7533C57.7316 23.7533 57.0551 23.5028 56.5563 23.0568L45.1557 12.8586V54.6253C45.1557 55.2552 44.8758 55.8593 44.3777 56.3047C43.8796 56.7501 43.2039 57.0003 42.4995 57.0003C41.795 57.0003 41.1193 56.7501 40.6212 56.3047C40.1231 55.8593 39.8432 55.2552 39.8432 54.6253V12.8586L28.4426 23.0568C28.1956 23.2777 27.9024 23.4528 27.5797 23.5723C27.2571 23.6918 26.9112 23.7533 26.562 23.7533C26.2127 23.7533 25.8668 23.6918 25.5442 23.5723C25.2215 23.4528 24.9283 23.2777 24.6813 23.0568C24.4344 22.836 24.2385 22.5739 24.1048 22.2854C23.9711 21.9969 23.9023 21.6876 23.9023 21.3753C23.9023 21.0631 23.9711 20.7538 24.1048 20.4653C24.2385 20.1768 24.4344 19.9147 24.6813 19.6938L40.6188 5.44384Z" fill="#E1E1E1"/>
</svg>
